<?xml version="1.0" encoding="utf-8"?>
<!-- Generator: Adobe Illustrator 19.0.0, SVG Export Plug-In . SVG Version: 6.00 Build 0)  -->
<svg version="1.1" id="Layer_1" xmlns="http://www.w3.org/2000/svg" xmlns:xlink="http://www.w3.org/1999/xlink" x="0px" y="0px"
	 viewBox="0 0 1000 1000" enable-background="new 0 0 1000 1000" xml:space="preserve">
<path id="XMLID_1_" d="M645.0705566,784.7074585c-29.3656006,14.9824829-61.3416138,25.5700684-95.0889282,30.8704834
	l-16.5272827-104.3847046c22.5736084-3.5426025,43.9885254-10.6275635,63.6322021-20.6558838L645.0705566,784.7074585z
	 M587.6043091,328.0674133c18.1123047,9.2427979,34.572876,21.2684631,48.822998,35.5050659l14.7560425-14.7558594
	c-15.7814941-15.7817078-34.0269775-29.0994568-54.0968018-39.3540955L587.6043091,328.0674133z M499.9999695,692.9477539
	c-10.2679749,0-20.3627625-0.7988281-30.1913147-2.3572388l-3.2627869,20.6027222
	c10.8938599,1.7178955,22.0675049,2.6104126,33.4541016,2.6104126c11.3867493,0,22.5470276-0.8925171,33.4543762-2.6104126
	l-3.2629395-20.6027222C520.362915,692.1489258,510.2680664,692.9477539,499.9999695,692.9477539z M114.3439026,618.3150635
	c-2.3039474-0.7191772-4.5414047-0.7191772-6.7253799-0.0133057c-3.0631485,0.9854736-5.1941223,2.5437622-6.3925934,4.6745605
	c-1.1986313,2.1174927-1.4250946,4.3547363-0.6525574,6.6987305c0.7325439,2.2907715,2.1707993,3.9154663,4.3149414,4.8745117
	c2.1308136,0.972168,4.7412109,0.9454956,7.8573608-0.0666504c2.7035446-0.8790283,4.6347198-2.3439941,5.7933578-4.4082642
	c1.1453094-2.0643311,1.3317795-4.2616577,0.5725784-6.6055908
	C118.2327499,620.7521973,116.64785,619.0341187,114.3439026,618.3150635z M163.3532104,266.8456421
	c3.1697998,2.3172913,5.966507,3.382782,8.3636017,3.2098083c2.3972626-0.1733093,4.2882843-1.1987915,5.6467285-3.0764771
	c1.3184509-1.824707,1.7180481-3.8623657,1.1854706-6.1529846c-0.5329132-2.2772827-2.1842957-4.434906-4.9543457-6.4455872
	c-3.0496521-2.210968-5.9263458-3.2364655-8.6165619-3.0498352c-2.6902161,0.1729889-4.7145386,1.1851501-6.0463104,3.0231628
	c-1.2651367,1.7443848-1.6380615,3.6890564-1.0919952,5.8463745
	C158.3723755,262.3573914,160.2104034,264.5683594,163.3532104,266.8456421z M136.1184387,353.6244812l-19.7768707-6.4192505
	l15.4619141,19.7233582L136.1184387,353.6244812z M519.5772095,121.0426788
	c1.09198,0.8788605,2.3439331,1.3317795,3.7554932,1.3317795c1.4118042,0,2.6768799-0.452919,3.7824097-1.3584366
	c1.1052856-0.892189,1.9576416-2.5035858,2.5701904-4.834198c0.7991943-2.9964981,1.1986694-8.0573196,1.1986694-15.1957855
	c0-7.1381454-0.3596191-12.05233-1.0786743-14.7158813c-0.7191772-2.6772156-1.6248779-4.461586-2.7168579-5.353775
	c-1.0921631-0.905838-2.3439331-1.3584366-3.7557373-1.3584366c-1.4115601,0-2.6768799,0.4525986-3.7821655,1.3584366
	c-1.1053467,0.892189-1.9577026,2.5035858-2.5704346,4.834198c-0.7990112,3.0098267-1.1984253,8.0973129-1.1984253,15.2354584
	c0,7.1384659,0.3595581,12.0526505,1.0786133,14.7162018C517.5795288,118.3791275,518.4852295,120.1504974,519.5772095,121.0426788z
	 M739.6932373,195.2226257c-1.8776855,2.5968933-2.6900635,5.1141357-2.4104614,7.537735
	c0.2664795,2.4239349,1.4116211,4.3549347,3.3959351,5.8067017c1.944519,1.4117584,4.0753174,1.8776855,6.3659668,1.4117584
	c2.2905884-0.4795837,4.3949585-2.0243225,6.3126221-4.6745605c1.6780396-2.3039398,2.3839111-4.634552,2.0909424-6.9785004
	c-0.2796021-2.3305969-1.4117432-4.2349548-3.4094238-5.6867065c-2.3039551-1.6647186-4.5945435-2.1176453-6.8851318-1.3584442
	C742.8630371,192.0531464,741.0516968,193.3715973,739.6932373,195.2226257z M834.9953003,259.8404846l-25.0507813,0.9055176
	l8.2304077,11.3200989L834.9953003,259.8404846z M757.3926392,184.9946594
	c1.7979736,1.2917938,3.6223755,1.8110352,5.4603882,1.5180817c1.8510132-0.2796173,3.4624023-1.3581085,4.8208618-3.2361298
	c1.2919312-1.7713623,1.784729-3.5823975,1.4917603-5.4070892c-0.2929688-1.8376923-1.3051147-3.3957672-3.0498047-4.6612244
	c-1.8112183-1.3184509-3.6491089-1.8376923-5.5002441-1.5447388c-1.864563,0.3062744-3.4359741,1.3317719-4.7145996,3.1031494
	c-1.371582,1.8776855-1.90448,3.7290344-1.6113892,5.5534058
	C754.5958862,182.1444702,755.6347656,183.7028809,757.3926392,184.9946594z M898.081604,495.0856628
	c-1.7578735-1.5582275-4.3547974-2.3305969-7.7775269-2.3305969c-3.7957153,0-6.7255249,0.8790283-8.789856,2.6103821
	c-2.0508423,1.7445679-3.0896606,3.742218-3.0896606,5.9796753c0,2.1706543,0.852356,3.968689,2.5303955,5.4069519
	c1.6914063,1.4382324,4.4614258,2.1574707,8.3103027,2.1574707c3.9553223,0,6.8586426-0.7725525,8.6965332-2.3306274
	c1.8378296-1.5447388,2.756897-3.4892578,2.756897-5.8065186
	C900.718689,498.5216064,899.8394775,496.6305847,898.081604,495.0856628z M903.9814453,600.0696411
	c-2.5969238-1.6914063-7.28479-3.6357422-14.0769653-5.8463745c-6.7920532-2.2108154-11.5730591-3.3827515-14.3299561-3.5160522
	c-2.7700195-0.1463013-4.7410278,0.1599731-5.9396973,0.9190063c-1.1853027,0.7723389-2.0109863,1.8245239-2.4372559,3.156311
	c-0.439209,1.3450928-0.3994141,2.6901855,0.1066895,4.0219727c0.5194092,1.3184814,1.784668,2.6369019,3.8088379,3.9420166
	c2.6237183,1.6914063,7.3247681,3.6357422,14.1168213,5.8466797c6.7921753,2.2106323,11.5732422,3.3826294,14.3299561,3.5291138
	c2.7702026,0.1333008,4.7412109-0.1731567,5.913147-0.9455566c1.1853027-0.7592163,1.9976807-1.8113403,2.4371338-3.1564331
	c0.4262085-1.3449707,0.3862305-2.6767578-0.119873-4.0085449
	C907.270874,602.6800537,906.0057983,601.3614502,903.9814453,600.0696411z M953.5901489,571.8493652
	c-7.4047241,47.1182861-22.187439,93.2910767-44.3082275,136.6936646
	c-21.335144,41.8711548-49.5287476,81.1585693-84.5545654,116.1842041
	c-35.0258179,35.0256958-74.3132324,63.2194824-116.1842651,84.5545654
	c-43.40271,22.1341553-89.5886841,36.9169922-136.7069702,44.3215942c-47.5844116,7.4979248-96.1144409,7.4979248-143.6854858,0
	c-47.1182861-7.4179077-93.2910767-22.187439-136.6936646-44.3215942
	c-41.87117-21.335083-81.1585999-49.5288696-116.1842499-84.5545654
	c-35.02565-35.0256348-63.2194366-74.3130493-84.5545349-116.1842041
	c-22.1208038-43.4025879-36.9036636-89.5753784-44.3081017-136.6936646c-7.5114059-47.5710449-7.5114059-96.1009521,0-143.6856689
	c7.404438-47.1181335,22.1872978-93.3040771,44.3081017-136.7068176
	c21.3484344-41.8710175,49.5288849-81.1584473,84.5545349-116.1842651s74.3130798-63.219429,116.1842499-84.5545273
	c43.4025879-22.1343002,89.5753784-36.9035034,136.6936646-44.3215942c47.5710449-7.4977531,96.1010742-7.4977531,143.6854858,0
	c47.1182861,7.4047585,93.3042603,22.187294,136.7069702,44.3215942
	c41.8710327,21.3350983,81.1584473,49.5287247,116.1842651,84.5545273s63.2061157,74.3132477,84.5545654,116.1842651
	c22.1207886,43.4027405,36.9035034,89.5886841,44.3082275,136.7068176
	C961.1012573,475.7484131,961.1012573,524.2783203,953.5901489,571.8493652z M904.3543701,376.1580505
	c-2.5570679-0.7458801-5.7000122-0.9188538-9.4290771-0.4929199l1.5847168,10.8008728
	c2.6237793-0.5329285,4.8078613-0.346283,6.5524292,0.5725708c1.7578735,0.9188538,2.9433594,2.3172607,3.5559082,4.2216187
	c0.6259155,1.9179993,0.5458984,3.6357422-0.239624,5.1807861c-0.772522,1.5314331-2.1442871,2.61026-4.0886841,3.2494812
	c-2.2905884,0.7458801-4.3815918,0.5462341-6.2859497-0.585907c-1.8911743-1.1321411-3.2894287-3.2098083-4.1817627-6.2329712
	l-9.4422607,1.7180481c1.1984863,1.7980347,2.024292,3.3961182,2.4902344,4.8211975
	c0.6925659,2.1576233,0.4796143,4.2616272-0.6658936,6.2859497c-1.1451416,2.0243225-3.116272,3.5027466-5.8996582,4.4082642
	c-2.956543,0.9588318-5.5534058,0.9321899-7.7908936-0.0666504c-2.2507935-0.9988403-3.7423706-2.650238-4.4880371-4.9408569
	c-0.6925659-2.1309509-0.5594482-4.1819458,0.3995972-6.1529541c0.9588013-1.9710083,2.7566528-3.5690613,5.380249-4.8075256
	l-4.7943726-10.3079529c-4.6878662,2.1306458-7.977356,5.4067688-9.8818359,9.8416748
	c-1.8911743,4.4216003-1.984375,9.2557983-0.2796021,14.5032654c1.7978516,5.5267334,5.0872803,9.5620728,9.8684692,12.1056519
	c4.7943726,2.5568848,9.7219238,2.9964905,14.8092041,1.3450928c3.4894409-1.1318054,6.1663208-3.1028137,7.9906616-5.8863525
	c1.824707-2.796875,2.5570679-5.9663391,2.1843262-9.5087585c4.8341675,4.5679321,9.7883301,6.0326843,14.8758545,4.3812866
	c3.5823975-1.171814,6.3526001-3.5690613,8.3102417-7.2048035c2.4105835-4.4216003,2.7302246-9.3490906,0.9588623-14.7961731
	c-1.0388184-3.1961365-2.5702515-5.8730469-4.6079102-8.0436707
	C909.215271,378.382019,906.9113159,376.9169312,904.3543701,376.1580505z M871.5391846,336.3377075
	c3.5959473,4.9145203,7.9508667,8.7765198,13.0648193,11.6000671l-41.817688,13.5840454l3.6090698,11.1068115l58.1186523-18.884491
	l-2.9298706-9.0161743c-3.9286499-0.1066284-7.7775269-1.4384155-11.5197144-3.9686584
	c-3.7557373-2.5435791-6.5657349-5.1008301-8.4569092-7.6977234L871.5391846,336.3377075z M795.2284546,257.9361267
	l14.6495361,20.1496582l-9.9085083,7.2051086l6.6322632,9.1358032l9.9085083-7.2047729l4.4480591,6.1259766l8.2836304-6.0326843
	l-4.4345703-6.1129761l31.2434082-22.6935425l-5.7666626-7.9373322l-46.7852173,1.3584442L795.2284546,257.9361267z
	 M747.0446777,182.8503571c-3.7288818-0.8521881-7.0583496-0.6525574-10.0016479,0.6259003
	c-2.9298706,1.2654419-5.3669434,3.2364502-7.3114624,5.9000092c-3.5157471,4.8341827-4.5145874,9.9216766-3.0231323,15.2487793
	c1.2785645,4.5145874,4.1419678,8.403595,8.6300049,11.6530609c4.8077393,3.4890747,9.6952515,4.874176,14.6627197,4.1419678
	c4.9677124-0.7325439,9.1094971-3.3827667,12.4122925-7.9243317c1.9976807-2.756546,3.0498047-5.6997223,3.156311-8.842865
	c0.1064453-3.1431427-0.8123779-6.2459564-2.7434082-9.3224487c2.8365479,0.6125641,5.4867554,0.4659271,7.977356-0.4529114
	c2.4770508-0.9188538,4.5412598-2.516922,6.2059326-4.8075409c2.6635742-3.662384,3.5825806-7.6443939,2.7302246-11.9196625
	c-0.8389893-4.2749634-3.6090698-8.110321-8.2836304-11.506424c-4.7278442-3.4360809-9.2424316-4.8875122-13.5441895-4.3549347
	c-4.3016357,0.5329132-7.7908936,2.6369019-10.4677734,6.3126068c-1.5581055,2.1443176-2.4372559,4.5279236-2.6369019,7.1384735
	C744.607605,177.3502655,745.3532715,180.0538177,747.0446777,182.8503571z M721.9406738,150.8613586l-25.8497925,35.5717316
	l9.4423828,6.8585205l35.9313354-49.4487457l-7.6577148-5.5537262c-3.2628174,2.2106323-7.1516113,3.3960876-11.6796875,3.5560608
	c-4.5147705,0.1463165-8.3103027-0.2666168-11.3601074-1.252121l-6.2192993,8.5632477
	C710.3543091,151.0076752,716.147522,151.580246,721.9406738,150.8613586z M608.6997681,110.415123
	c6.0861816-0.0266571,11.7860718-1.27845,17.0733643-3.7556992l-13.5975952,41.8180084l11.093811,3.6090546l18.8978271-58.1322784
	l-9.0028076-2.9165115c-2.4104004,3.116478-5.7531738,5.4470901-10.0016479,6.9785004
	c-4.2616577,1.5450668-7.9906616,2.3172836-11.1868286,2.3306122L608.6997681,110.415123z M503.5691833,100.8663864
	c0,11.6797104,1.8112183,19.7900314,5.4469299,24.3446045c3.6223755,4.5548935,8.3902588,6.8321915,14.3165894,6.8321915
	c5.8998413,0,10.4944458-2.077652,13.7840576-6.2326355c3.9819946-5.0341568,5.9796753-13.3044434,5.9796753-24.8245087
	c0-11.5464096-1.984375-19.8033676-5.9398804-24.7842026c-3.3161011-4.2086182-7.9240112-6.3126068-13.8238525-6.3126068
	c-5.8996582,0-10.4942017,2.0773239-13.783844,6.2326279C505.566864,81.1560135,503.5691833,89.3996353,503.5691833,100.8663864z
	 M484.0186157,87.6549301c0,2.3572693-0.8121948,4.7412033-2.4104309,7.1384735
	c-1.1853027,1.7447052-4.4214172,5.0741501-9.6687012,9.9749985c-6.5390625,6.0596542-10.9073486,10.9205093-13.1313171,14.5828934
	c-2.2107849,3.6757202-3.542572,7.5510788-3.9819946,11.6530533h40.8988342V120.163826h-23.1727905
	c0.6125488-1.0521545,1.4115906-2.1309738,2.3970947-3.2364502c0.972168-1.1051559,3.3027954-3.3427811,6.9918213-6.7255478
	c3.6757202-3.3824387,6.2194824-5.9663315,7.631073-7.7640381c2.1307983-2.7168808,3.6890564-5.3004456,4.6745605-7.7776947
	c0.9855042-2.4769287,1.478241-5.0871582,1.478241-7.8306961c0-4.8211899-1.7180481-8.8431854-5.1539612-12.0793152
	c-3.4226074-3.2494583-8.1504822-4.8608551-14.1567993-4.8608551c-5.4736023,0-10.0416565,1.3984299-13.7040405,4.1949692
	c-3.6490784,2.7968597-5.8197021,7.4047546-6.5122681,13.8240204l11.6264038,1.1584702
	c0.2129517-3.3960953,1.0521545-5.8333511,2.4904175-7.3114395c1.4382629-1.4650879,3.3692627-2.1973038,5.8065186-2.1973038
	c2.4637451,0,4.394928,0.7055511,5.7932129,2.1039886C483.3127441,83.0603638,484.0186157,85.0580292,484.0186157,87.6549301z
	 M355.6487427,95.8055649l4.1018066,31.9759903l9.4289246-1.624733c1.6114197-3.6360474,4.008667-5.9666595,7.1916504-7.0051575
	c2.5570679-0.8258591,4.9143372-0.6125717,7.0849915,0.6392212c2.1709595,1.2651291,3.8356628,3.6757202,4.980835,7.2314606
	c1.2386169,3.7823715,1.358429,6.8851852,0.3595886,9.2824478c-0.9855042,2.4105988-2.6502075,3.9820099-4.9674988,4.7412109
	c-2.0243225,0.6525574-4.048645,0.5059204-6.0728149-0.4529266c-2.0376587-0.9588318-3.6092224-2.6235504-4.7412109-5.0341492
	l-10.6807251,4.7411957c2.2239685,4.6345673,5.5000916,7.8310242,9.8016968,9.602066
	c4.3016357,1.7846985,9.1228027,1.7980347,14.4632568,0.0666504c6.6855469-2.170639,11.0803223-6.432251,13.1844482-12.758194
	c1.5582581-4.6348877,1.5582581-9.3361053,0-14.1036453c-1.8510132-5.7133789-5.0739746-9.8020248-9.655365-12.2656174
	c-4.5812378-2.4639206-9.3357849-2.903511-14.2633057-1.3054428c-2.5835571,0.8391876-4.9008484,2.2776108-6.9784851,4.3152695
	l-1.4515991-10.3879242l20.9221802-6.8055267l-3.3692627-10.3876038L355.6487427,95.8055649z M260.7729187,164.512085
	l10.0814819-5.9000092c-1.8245239-2.8898621-2.5837097-5.3404388-2.2774353-7.3780975
	c0.3064575-2.0243378,1.4384155-3.7687225,3.4094238-5.1938019c1.9976807-1.451767,3.968689-2.0243378,5.9130249-1.7047272
	c1.9578247,0.3062897,3.7023621,1.5180969,5.2339478,3.622406c1.3717651,1.9046783,2.1308289,4.3016052,2.2374573,7.1914673
	c0.0666504,2.1043091-0.5860596,6.6855469-1.9576721,13.7440338c-1.7313843,8.7498627-2.4105835,15.2487793-2.0376587,19.5240631
	c0.3596191,4.2616272,1.5714111,8.1903076,3.622406,11.7593689l33.0812988-24.0383148l-6.3657837-8.7631989l-18.7515259,13.6107178
	c-0.119812-1.211792-0.1064758-2.5435791,0.0266724-4.0219879c0.1464844-1.4647675,0.7192078-4.6612244,1.7047119-9.5487366
	c0.9988403-4.9008484,1.5447388-8.4835815,1.6247253-10.7742004c0.1331482-3.4490967-0.1331482-6.4592438-0.7990417-9.0428162
	s-1.7978516-4.980835-3.4094238-7.2048035c-2.8233643-3.8890076-6.5788879-6.1396332-11.2667847-6.7388763
	c-4.6745605-0.6125641-9.4422607,0.8522034-14.3032837,4.3816071c-4.4347534,3.2227936-7.3114319,7.0451508-8.6300354,11.4530945
	C256.6043091,153.897522,257.5499573,158.9050293,260.7729187,164.512085z M223.5896454,188.2841187l6.2194672,8.5632324
	c3.5690613-4.9408417,5.8996735-10.2812805,7.0051575-16.0079956l25.8363647,35.5717316l9.4424133-6.8585205l-35.9181671-49.4487457
	l-7.6577148,5.5667419c1.1053162,3.7823639,1.0254822,7.8440247-0.2264709,12.1989594
	C227.0389099,182.2111359,225.4674988,185.6872101,223.5896454,188.2841187z M147.7714844,262.8903198
	c0.9056854,5.1937866,3.8488617,9.6020508,8.8430176,13.2244568c4.7943726,3.4894104,9.7087097,4.9011536,14.7293854,4.2619324
	c5.0341492-0.6262207,8.9629974-2.8901672,11.7730255-6.7655334c2.5835724-3.5557251,3.3694305-7.5247192,2.3306122-11.9060059
	c5.3670959,4.487915,8.4567566,8.0570068,9.2557831,10.7338867c0.7991943,2.6635437,0.4929199,4.9674988-0.9321747,6.9121704
	c-1.1188202,1.5447388-2.4637604,2.4635925-4.0486603,2.7565308c-1.5714111,0.2929688-3.3827667-0.1329651-5.3937683-1.25177
	l-5.6333923,9.8683472c4.5547485,2.2906189,8.7232208,2.9964905,12.5055847,2.1043091
	c3.7688599-0.8788452,7.0583191-3.2494507,9.855011-7.0984802c3.888855-5.3534546,5.0475006-11.1468201,3.4892578-17.3797607
	c-1.5582428-6.2326355-6.8453522-12.6252289-15.8481903-19.1641388c-8.8428497-6.4192505-16.3542633-9.4424133-22.5468903-9.0428162
	c-6.1928101,0.3995972-11.093811,3.0898132-14.729538,8.0839844
	C148.091095,252.821991,146.8659668,257.7098389,147.7714844,262.8903198z M99.8541565,340.2800293l28.6065521,37.0498352
	l9.7220459,3.1564636l7.6977081-23.6923828l11.6397247,3.7820435l3.4892578-10.7338867l-11.6398926-3.7823486l2.3306122-7.1914673
	l-9.7485352-3.1697998l-2.3437805,7.1917725l-36.7172012-11.9326477L99.8541565,340.2800293z M84.0193024,389.0362244
	c3.1163177,2.410614,5.4469299,5.7533875,6.9786682,10.0016785c1.5447464,4.2616272,2.317276,7.9906616,2.3306122,11.1871033
	l10.0681458,3.276123c-0.0266571-6.0996399-1.2786102-11.7863464-3.7555389-17.0734558l41.817688,13.5973816l3.6090546-11.1071472
	l-58.1319504-18.884491L84.0193024,389.0362244z M70.1821213,478.0656738
	c3.7023773,1.3184509,6.9518356,3.7687073,9.7353668,7.3381042c2.7835312,3.582428,4.6612244,6.8851929,5.6600571,9.9350281
	h10.5875626c-1.9043503-5.7933655-4.8608551-10.814209-8.8428574-15.0758057h43.9751587v-11.6663818H70.1821213V478.0656738z
	 M85.5775452,537.9290161h10.5875626c-1.9043503-5.7800293-4.8608551-10.8008423-8.8428574-15.0758057h43.9751587v-11.6663818
	H70.1821213v9.4690552c3.7023773,1.3317871,6.9518356,3.7822266,9.7353668,7.3514404
	C82.7010193,531.576416,84.5787125,534.8925171,85.5775452,537.9290161z M141.4055481,635.255249
	c4.3282776-1.3982544,7.3914337-4.0751343,9.2292938-8.0305176c1.8245239-3.9554443,1.851181-8.6831665,0.0533142-14.1968994
	c-1.7978668-5.5534668-4.5947266-9.3756104-8.3902588-11.4797974c-3.8088684-2.0909424-7.8575134-2.4372559-12.1724701-1.0388184
	c-2.5302429,0.8256836-4.6478806,2.223999-6.3392639,4.2216187c-1.6913834,1.984375-2.6768875,4.6212769-2.9565125,7.8842163
	c-2.5170746-2.8900146-5.3271103-4.6745605-8.456749-5.3803101c-3.1163177-0.7058716-6.2461243-0.5462036-9.3757706,0.4793091
	c-5.686554,1.8380127-9.495575,5.3670654-11.4132614,10.5610352c-1.6247253,4.3947754-1.5847321,9.2293091,0.1198196,14.4897461
	c1.8378601,5.6600342,4.980835,9.6553955,9.4422531,11.9726563c4.4482574,2.3306274,9.3491058,2.6235962,14.6895447,0.8790283
	c3.2361298-1.052124,5.8198624-2.8099976,7.7510376-5.2872925c1.9310074-2.4769287,3.0231628-5.5267334,3.2627869-9.1624756
	c1.9310074,2.1706543,4.1684647,3.6090698,6.7122116,4.3283081
	C136.1051025,636.2142334,138.7286682,636.1342773,141.4055481,635.255249z M145.4808655,740.4656982l49.4488983-35.9313354
	l-5.5668945-7.6577148c-3.782196,1.1052856-7.8440247,1.0386353-12.1989594-0.2131348
	c-4.3416138-1.2518311-7.817688-2.8233643-10.4145966-4.7012329l-8.5632324,6.2194824
	c4.9408417,3.5559082,10.2812805,5.8864746,16.0079803,6.9918213l-35.5718842,25.8498535L145.4808655,740.4656982z
	 M218.2625427,736.6567993c-3.8755188-5.3404541-9.0161591-8.21698-15.435257-8.6565552
	c-6.4059296-0.4395752-14.1169739,2.6102295-23.1464691,9.1759644
	c-8.8028564,6.3924561-13.9703217,12.5853882-15.5017395,18.5915527
	c-1.5449066,6.0196533-0.5060883,11.5065918,3.1163177,16.4741211c3.3694305,4.6345215,7.6443787,7.3247681,12.8383484,8.0706177
	c5.1938019,0.7459106,10.3079376-0.7191772,15.3421021-4.3815918c4.7543793-3.4492798,7.6044006-7.6577148,8.5632324-12.6518555
	c0.958847-4.9942017,0-9.4556274-2.8631897-13.3977661c-2.5305634-3.4891357-6.0463257-5.4069214-10.5344086-5.7398682
	c5.9263458-3.7555542,10.2946167-5.6069336,13.0779877-5.5269165c2.7968597,0.0799561,4.9141846,1.1054688,6.3659363,3.1031494
	c1.0921478,1.5046997,1.5315704,3.0498047,1.3184509,4.6345215c-0.2129669,1.5980835-1.1853027,3.1828003-2.903183,4.7810669
	l7.6443787,8.4034424c3.5024261-3.5690918,5.4069366-7.3381348,5.7132263-11.3201294
	C222.1780548,744.2478638,220.979248,740.3858643,218.2625427,736.6567993z M298.6752625,810.2108765l-32.2822571-23.4526367
	l-6.3659363,8.7630615l21.4682312,15.5950928c-8.4967346,2.3572388-16.6338806,6.0996094-24.4247437,11.2536011
	c-7.7910309,5.1539917-14.2499542,11.0669556-19.350769,17.7658691l9.109314,6.6055298
	c3.1296387-4.3547363,7.4312592-8.7761841,12.8783569-13.237793c5.4602356-4.4747314,11.3467712-8.1636353,17.6593628-11.0671387
	c6.3126221-2.9031982,11.759552-4.6876831,16.3276062-5.380249L298.6752625,810.2108765z M373.161499,845.3964844
	l-9.0028381-2.9299927c-2.4104309,3.1164551-5.7398682,5.4470825-10.0016479,6.9918213
	c-4.2483215,1.5315552-7.977356,2.3172607-11.1868286,2.3172607l-3.2760925,10.0682983
	c6.0994568-0.0266724,11.7860107-1.2784424,17.0733032-3.7556763l-13.5842285,41.8179932l11.093811,3.6090698
	L373.161499,845.3964844z M419.680542,868.0366821c-2.2907715-5.7665405-6.3792725-9.6022339-12.2391052-11.5065918
	c-5.4069519-1.7579956-10.4277649-1.3984375-15.0889893,1.0521851c-4.6478882,2.4637451-7.9373474,6.6322021-9.8418579,12.505249
	c-1.8245239,5.6333618-1.6647339,10.7341919,0.4927673,15.3287354c2.1707764,4.5814209,5.526886,7.6177368,10.0814819,9.0961914
	c4.1819458,1.3583984,8.203949,0.8788452,12.0393066-1.4517822c-2.5968933,6.4859009-5.0474854,10.5212402-7.3381042,12.105957
	c-2.2906189,1.5847778-4.5812378,1.9976807-6.8718567,1.2651367c-1.8113708-0.5992432-3.1031494-1.5980835-3.8621826-3.0098267
	c-0.7723694-1.4117432-0.9323425-3.2494507-0.4794312-5.5267334l-11.1337891-2.3039551
	c-0.7590332,5.0473022-0.1463318,9.229126,1.8646851,12.5452271c2.0109863,3.3161011,5.2737732,5.7133789,9.8016968,7.1782837
	c6.2994385,2.0508423,12.1593018,1.3582764,17.6062317-2.0509644c5.4468994-3.4092407,9.8951721-10.401123,13.3310852-20.9888306
	C421.4117737,881.8739014,421.9578247,873.8032227,419.680542,868.0366821z M519.9899292,910.2939453
	c0-3.6890259-1.0388184-6.8320313-3.1296387-9.428894c-2.0908203-2.5971069-4.8743286-4.2749634-8.3634338-5.020874
	c5.8330383-3.1829224,8.7497253-7.4447021,8.7497253-12.7851563c0-3.7688599-1.4249268-7.1514893-4.2751465-10.1346436
	c-3.4624023-3.6490479-8.0571289-5.4870605-13.7836914-5.4870605c-3.3427734,0-6.3659363,0.6392212-9.069458,1.8911743
	c-2.7035522,1.2652588-4.8078613,2.99646-6.3126221,5.1939697c-1.5049133,2.1972656-2.6369019,5.140625-3.382782,8.8163452
	l10.7608948,1.8378296c0.2929382-2.6635132,1.1584473-4.6878662,2.5702209-6.072937
	c1.4117737-1.3718262,3.1163025-2.0643311,5.1008301-2.0643311c2.0241394,0,3.6490479,0.5993652,4.8608398,1.824646
	c1.2253113,1.211853,1.8245239,2.8499146,1.8245239,4.9008789c0,2.3972778-0.8256836,4.3283081-2.4904175,5.793335
	c-1.6647034,1.4515991-4.0619812,2.1306763-7.2181091,2.0508423l-1.2919617,9.5089111
	c2.0776367-0.5858765,3.8621826-0.8788452,5.3537598-0.8788452c2.2774658,0,4.1951294,0.8655396,5.7798767,2.5835571
	c1.5715637,1.7047119,2.3572693,4.0353394,2.3572693,6.96521c0,3.1031494-0.8256836,5.5667114-2.4637451,7.3914185
	c-1.6513977,1.8243408-3.6757202,2.7433472-6.0861511,2.7433472c-2.2374573,0-4.155304-0.7590332-5.7267151-2.2772827
	c-1.5847473-1.5315552-2.5437317-3.7290039-2.9031677-6.6057129l-11.2936096,1.3717651
	c0.5727234,5.1141357,2.6768799,9.2557983,6.3127747,12.4255981c3.6223755,3.1694946,8.1902771,4.7543945,13.6905212,4.7543945
	c5.8198853,0,10.6809082-1.8778687,14.5830994-5.6467285C518.0455933,920.1891479,519.9899292,915.6343994,519.9899292,910.2939453z
	 M653.9268799,802.1003418l-8.8563232-17.3928833c29.9916382-15.3154297,57.2397461-35.225647,80.8256226-58.8115234
	l13.8103638,13.8106689c25.0241699-25.0241089,46.1594849-53.9503174,62.3939209-85.7797852l-17.4064331-8.8696899
	c14.9958496-29.352417,25.5700684-61.3417358,30.8706665-95.0754395l19.2974854,3.0629883
	c2.7166748-17.2733154,4.128479-34.9991455,4.128479-53.0446472c0-18.0456543-1.4118042-35.7583618-4.128479-53.0314941
	l-19.2974854,3.0498352c-5.3005981-33.7340393-15.8748169-65.7233582-30.8706665-95.0757751l17.4064331-8.8695068
	c-16.234436-31.8293762-37.369751-60.7555237-62.3939209-85.7796936l-13.8103638,13.8237
	c23.5724487,23.5727234,43.4824219,50.8338623,58.7978516,80.8255005l-94.1565552,47.9706421
	c-10.241333-20.0696411-23.5724487-38.3152466-39.354126-54.0966187l74.6995239-74.6995239
	c-23.5858765-23.5990448-50.8339844-43.5090637-80.8256836-58.8111725l8.8696899-17.4064178
	c-31.1502686-15.9146729-65.09729-27.1414642-100.8954468-32.7618561l-3.0498047,19.2977753
	c-16.2876587-2.5572357-32.9748535-3.8890228-49.9816589-3.8890228c-17.0068359,0-33.6938782,1.3317871-49.9816589,3.8890228
	l-3.0629883-19.2977753c-35.7981873,5.6203918-69.731842,16.8471832-100.8821411,32.7618561l8.8696899,17.4064178
	c-29.9916687,15.3021088-57.2397766,35.2121277-80.8255005,58.8111725l74.6991882,74.6995239
	c-15.7813721,15.7813721-29.1124878,34.0269775-39.3539429,54.0966187l-94.1700745-47.9836426
	c15.3154297-29.9916687,35.2256012-57.2397766,58.8114929-80.8125l-13.8106995-13.8237
	c-25.0241394,25.0241699-46.1592712,53.9503174-62.3937225,85.7796936l17.3929291,8.8565063
	c-14.9824982,29.3521118-25.5700684,61.3414307-30.8705139,95.0887756l-19.2841187-3.0498352
	c-2.7168732,17.2731323-4.1284637,34.9858398-4.1284637,53.0314941c0,18.0455017,1.4115906,35.7713318,4.1284637,53.0446472
	l19.2841187-3.0629883c5.3004456,33.7470093,15.8880157,65.7230225,30.8705139,95.0887451l-17.3929291,8.8563843
	c16.2344513,31.8294678,37.3695831,60.7556763,62.3937225,85.7797852l13.8106995-13.8106689
	c23.5857239,23.5858765,50.8338318,43.4960938,80.8255005,58.8115234l-8.8563538,17.3928833
	c31.1502991,15.914856,65.0839539,27.1416626,100.8821411,32.7617188l3.0629883-19.2841187
	c16.2877808,2.5569458,32.974823,3.8886719,49.9816589,3.8886719c17.0068054,0,33.6940002-1.3317261,49.9816589-3.8886719
	l3.0498047,19.2841187C588.8295898,829.2420044,622.7766113,818.0151978,653.9268799,802.1003418z M619.6069946,912.7310791
	l-18.8845215-58.131958l-9.0028687,2.9298096c-0.1199341,3.9287109-1.4517212,7.7775269-3.9819946,11.5330811
	c-2.5438843,3.7423706-5.100769,6.5657349-7.6843872,8.4569092l3.2628174,10.0683594
	c4.9141846-3.6092529,8.7763672-7.9641724,11.5997314-13.078186l13.5974121,41.817688L619.6069946,912.7310791z
	 M652.9547119,862.3366699c1.3584595-6.8187256,3.116333-12.2789917,5.2471313-16.3674927l-2.6235352-8.057312
	l-37.9423218,12.3322754l3.3427734,10.2946167l25.2371216-8.1904297
	c-3.0765381,8.2437744-4.8344116,17.0333252-5.2471313,26.3690796c-0.4129639,9.3357544,0.5858765,18.0322876,2.99646,26.0896606
	l10.7075806-3.4759521c-1.6914063-5.100647-2.7435303-11.1602783-3.1431274-18.2054443
	C651.1166992,876.0805054,651.5963135,869.1553345,652.9547119,862.3366699z M768.6062622,836.4069824l-6.3659668-8.7630615
	l-18.7513428,13.6107178c-0.1199951-1.1986084-0.1066895-2.5437012,0.0266724-4.0219727
	c0.1464233-1.4650879,0.7191772-4.6478882,1.7180176-9.5488892c0.9854736-4.901001,1.5314331-8.4833984,1.6113892-10.7740479
	c0.1331787-3.4494019-0.1333008-6.4592285-0.7991943-9.0428467c-0.6658936-2.5835571-1.7978516-4.980835-3.4092407-7.1914673
	c-2.8233643-3.9021606-6.5791016-6.1529541-11.2669678-6.7521973c-4.6745605-0.5992432-9.4420776,0.8657227-14.3032837,4.3949585
	c-4.4347534,3.2094727-7.3114624,7.0317993-8.6165771,11.4399414c-1.3184204,4.4080811-0.3729248,9.4155884,2.8500366,15.0222778
	l10.0814819-5.8996582c-1.8110352-2.8765259-2.5835571-5.3404541-2.2772827-7.3781128
	c0.3062744-2.024292,1.4384155-3.7555542,3.4094238-5.1937866c1.9976807-1.4517822,3.968689-2.0109863,5.9263306-1.7047119
	c1.944397,0.3062744,3.6890869,1.5180664,5.2206421,3.6223755c1.3849487,1.9043579,2.1307983,4.3016357,2.2374878,7.1916504
	c0.0664673,2.104126-0.5860596,6.6853638-1.9578857,13.7438965c-1.7312012,8.7498169-2.4104004,15.2487793-2.0374756,19.5238647
	c0.359436,4.2617798,1.5714111,8.1904907,3.6223755,11.7595215L768.6062622,836.4069824z M840.069458,764.0249023
	l-49.4490356-35.9180298l-5.5667725,7.6577759c2.2241211,3.2494507,3.4094238,7.1381226,3.5690918,11.6663818
	c0.1466064,4.5278931-0.2662964,8.3102417-1.2518311,11.3599243l8.5634155,6.2194214
	c1.8511963-5.793335,2.4237671-11.5997314,1.7045898-17.3930664l35.5718384,25.8498535L840.069458,764.0249023z
	 M866.2387695,716.0675659c-1.4649048-4.6611938-4.2349854-8.4569092-8.2836304-11.4133911
	c-4.8608398-3.5291138-9.8683472-4.9408569-15.0358276-4.248291c-5.1538086,0.7058716-9.2557983,3.1429443-12.305603,7.3380737
	c-1.5847168,2.1973267-2.6235352,4.7279053-3.1029663,7.5910645l-7.28479-7.5510864l12.9315186-17.8059692l-8.8297119-6.4191284
	l-18.1387939,24.9575195l22.1207886,23.4525757l6.6722412-6.8452148c-0.8390503-3.8889771-0.2662964-7.1917725,1.6913452-9.8953247
	c1.5847778-2.18396,3.6224365-3.3959351,6.1129761-3.6490479c2.5036011-0.2529907,5.260498,0.7191772,8.2836304,2.9033203
	c3.2227783,2.3439331,5.1405029,4.7810669,5.7532349,7.3116455c0.5993652,2.5302124,0.1864624,4.7808228-1.2386475,6.7518311
	c-1.25177,1.7313843-2.9831543,2.796875-5.180481,3.2098389c-2.2107544,0.4260864-4.4749146,0-6.7921753-1.2786255
	l-5.8596802,10.1081543c4.5278931,2.4372559,9.0559692,3.1031494,13.5707397,2.0109863
	c4.5280762-1.09198,8.4435425-3.9153442,11.7463379-8.4567871
	C867.1975708,728.453186,868.2630615,722.4335327,866.2387695,716.0675659z M904.6340332,646.0292969l-58.1321411-18.8845215
	l-2.916687,9.0028076c3.1164551,2.4106445,5.4470825,5.7400513,6.9918213,9.9883423
	c1.5317383,4.2616577,2.3173218,7.9906616,2.3173218,11.2001343l10.0682983,3.2629395
	c-0.0266724-6.0861206-1.2784424-11.7728271-3.7557373-17.0599365l41.8180542,13.5840454L904.6340332,646.0292969z
	 M915.4346924,595.9678345c-3.5559082-5.3404541-10.8140259-9.8018799-21.7611694-13.357605
	c-10.973877-3.5692749-19.4440918-4.2351685-25.4104614-2.0109863c-5.020813,1.8643188-8.4567261,5.5933838-10.2679443,11.2001343
	c-1.8245239,5.6066895-1.2651367,10.6141968,1.6647339,15.0357666c3.5557251,5.3404541,10.7873535,9.7885742,21.6813965,13.3311157
	c11.1069336,3.6090698,19.390564,4.3949585,24.8375244,2.3572998c5.4603882-2.0510254,9.0961304-5.8865356,10.9206543-11.5198975
	C918.9239502,605.3967285,918.3646851,600.3892212,915.4346924,595.9678345z M930.9099731,501.9310303
	c0-6.5922241-2.4638062-11.9460144-7.3914795-16.0613098c-4.9274902-4.1283264-12.9714966-6.192627-24.1184692-6.192627
	c-10.8806763,0-18.7113647,1.984314-23.479248,5.9396667c-4.7810059,3.9553528-7.1647949,9.0028381-7.1647949,15.1556396
	c0,5.726532,1.8776855,10.4144287,5.6467285,14.0767822c3.7555542,3.6491089,8.7630615,5.4737549,14.9824829,5.4737549
	c5.8730469,0,10.6542358-1.7313843,14.369812-5.2072754c3.7023926-3.4759216,5.5668945-7.6445618,5.5668945-12.5187378
	c0-4.3149414-1.7180786-7.9373474-5.1541748-10.8406982c7.005188,0.4394226,11.6132813,1.5182495,13.8240356,3.2229614
	c2.2106323,1.7047119,3.3294678,3.782196,3.3294678,6.2459717c0,1.8511963-0.5593872,3.3694153-1.6647339,4.5280762
	c-1.1054688,1.1586304-2.8235474,1.8778381-5.1541138,2.1574707l1.2519531,11.293457
	c4.9276733-0.8256836,8.6831665-2.7567139,11.2669067-5.7932129
	C929.6181641,510.3746338,930.9099731,506.5522461,930.9099731,501.9310303z M180.0137634,753.0910645
	c-3.0629883,2.2373047-4.9275055,4.6611938-5.5667419,7.28479c-0.6392212,2.6235352-0.3062744,4.8341675,1.0121765,6.6588745
	c1.2651215,1.7445679,3.0098267,2.7035522,5.220459,2.8765259c2.2109528,0.1599731,4.8745117-0.8788452,7.9906616-3.1430054
	c3.1964569-2.3172607,5.0874786-4.6478882,5.6600494-6.9918213c0.5860748-2.3305664,0.1866302-4.4480591-1.1717987-6.3259277
	c-1.3184509-1.8112183-3.1431427-2.8233643-5.4870911-3.0496826
	C185.3408813,750.1743774,182.7839661,751.0800781,180.0137634,753.0910645z M141.9251251,616.0109863
	c-0.6925507-2.1306763-1.8780212-3.6224365-3.5559082-4.4746094c-1.6647186-0.8525391-3.542572-0.9454956-5.620224-0.2664185
	c-2.2106323,0.7191772-3.7422028,1.90448-4.5679016,3.5558472c-0.8256989,1.6514282-0.9055176,3.5157471-0.2396317,5.5934448
	c0.6923904,2.1043091,1.864357,3.5957031,3.5290756,4.4482422c1.6513977,0.8521729,3.5957336,0.9321899,5.8067017,0.2129517
	c2.0774841-0.6791992,3.5424042-1.8510132,4.3814392-3.5023804
	C142.4976959,619.9264526,142.5910187,618.0619507,141.9251251,616.0109863z M403.9256897,865.5595703
	c-2.0509949-0.6658325-4.008667-0.4129028-5.8998718,0.7723999c-1.8778381,1.1719971-3.4225769,3.6092529-4.6212158,7.2849731
	c-1.2119751,3.7421875-1.358429,6.7253418-0.4527588,8.9628296c0.9055176,2.223938,2.4635925,3.7022095,4.6745605,4.4213867
	c2.1306458,0.6923828,4.1949463,0.4261475,6.2059631-0.7857056c2.0109863-1.1986084,3.542572-3.4360352,4.6078796-6.7121582
	c1.1588135-3.5690918,1.2386475-6.6188965,0.2398071-9.1228027
	C407.6678772,867.8635254,406.0829773,866.2655029,403.9256897,865.5595703z M402.9135132,690.5373535l-47.9839783,94.170105
	c29.3657532,14.9824829,61.3417358,25.5700684,95.0887756,30.8704834l16.5275574-104.3847046
	C443.9588318,707.6506348,422.5572205,700.5788574,402.9135132,690.5373535z M713.8035889,500.0000305
	c0,11.3865967-0.8922119,22.5469055-2.6102295,33.454071l104.3713379,16.5275879
	c2.5570679-16.2877808,3.888855-32.9748535,3.888855-49.9816589c0-17.0068359-1.3317871-33.6940308-3.888855-49.9816589
	l-104.3713379,16.5272522C712.911377,477.4529419,713.8035889,488.6132507,713.8035889,500.0000305z M671.9458618,587.6177368
	l18.5916138,9.46875c10.041626-19.6570435,17.1132813-41.0586548,20.6558838-63.6323853l-20.6026001-3.2628174
	C687.3811646,550.5675659,681.0018921,569.8916626,671.9458618,587.6177368z M636.4273071,636.4272461
	c-14.2367554,14.2365723-30.6973267,26.2625732-48.8096313,35.5183716l9.4688721,18.5917358
	c20.0698242-10.2547607,38.3153076-23.5725708,54.0968018-39.3539429L636.4273071,636.4272461z M651.1833496,651.1834106
	l74.7128296,74.7125244c23.5857544-23.5856934,43.4957886-50.847168,58.7978516-80.8388062l-94.1565552-47.9706421
	C680.2961426,617.1564331,666.9650269,635.4017334,651.1833496,651.1834106z M286.1965332,500.0000305
	c0-11.3867798,0.892334-22.5470886,2.6102295-33.4544067l-104.3847351-16.5272522
	c-2.5569153,16.2876282-3.8886871,32.974823-3.8886871,49.9816589c0,17.0068054,1.3317719,33.6938782,3.8886871,49.9816589
	l104.3847351-16.5275879C287.0888672,522.546936,286.1965332,511.3866272,286.1965332,500.0000305z M309.4094849,530.1912842
	l-20.6027222,3.2628174c3.542572,22.5737305,10.6143799,43.9753418,20.6558533,63.6323853l18.5783997-9.46875
	C318.9981995,569.8916626,312.6056213,550.5675659,309.4094849,530.1912842z M499.9999695,307.0652771
	c10.2680969,0,20.3495789,0.7991943,30.1781311,2.3572693l3.2762451-20.6159058
	c-10.9073486-1.7180481-22.067627-2.6102295-33.4543762-2.6102295c-11.3865967,0-22.5602417,0.8921814-33.4541016,2.6102295
	l3.2627869,20.6159058C479.637207,307.8644714,489.7319946,307.0652771,499.9999695,307.0652771z M412.3955994,328.0674133
	l-9.4820862-18.6048889c-20.0699768,10.2413025-38.3152771,23.5723877-54.0969543,39.3540955l14.7561951,14.7558594
	C377.8227234,349.3358765,394.2836304,337.3102112,412.3955994,328.0674133z M466.5458679,288.8066406l-16.5275574-104.3712158
	c-33.7337036,5.3004456-65.7230225,15.8746796-95.0754395,30.8704987l47.9706421,94.156601
	C422.5572205,299.4208679,443.9588318,292.3490601,466.5458679,288.8066406z M309.4094849,469.8084106
	c3.1961365-20.375946,9.5887146-39.7000427,18.6448669-57.4260864l-18.5917358-9.4690857
	c-10.0414734,19.657074-17.1132813,41.0588074-20.6558533,63.6323853L309.4094849,469.8084106z M363.5727539,636.4272461
	l-14.7561951,14.7561646c15.7816772,15.7813721,34.0269775,29.1124878,54.0969543,39.3539429l9.4689331-18.5917358
	C394.2702942,662.6898193,377.8093872,650.6638184,363.5727539,636.4272461z M690.5907593,469.822052l20.6026001-3.2764282
	c-3.5426025-22.5735779-10.6142578-43.9753113-20.6558838-63.6323853l-18.6049194,9.4824219
	C681.0018921,430.1217041,687.3944702,449.4458008,690.5907593,469.822052z M307.0521851,500.0000305
	c0-10.2679749,0.7988892-20.3629456,2.3572998-30.1916199l159.4003601,25.2507629
	c0.5192261-3.3294373,1.5714111-6.4992371,3.0631409-9.3890991l-143.818634-73.2877502
	c9.2557983-18.1123047,21.2817688-34.572876,35.5184021-48.809845l114.0932617,114.1069336h0.0133362
	c2.3306274-2.3439331,5.0208435-4.3016052,7.9906616-5.8067017l-73.2744141-143.8052979
	c17.7260437-9.0561523,37.0368042-15.4484253,57.4130554-18.6448669l25.2504578,159.3870239
	c1.6113892-0.2529602,3.2627869-0.3859558,4.9408569-0.3859558c1.6780396,0,3.3294373,0.1329956,4.9410095,0.3859558
	l25.2371216-159.3870239c20.3762207,3.1964417,39.7001953,9.5887146,57.4262085,18.6448669L514.329895,471.8727112
	c2.9698486,1.5050964,5.6600342,3.4761047,7.9906616,5.8067017l114.1067505-114.1069336
	c14.2501221,14.2503052,26.2759399,30.7108765,35.505249,48.8231812l-143.8052979,73.2744141
	c1.491394,2.8898621,2.5435791,6.0596619,3.0629883,9.3890991l159.4005127-25.2371216
	c1.5447388,9.8283691,2.3439331,19.9100037,2.3439331,30.1779785c0,10.2679443-0.7991943,20.3629456-2.3439331,30.1912537
	l-159.4005127-25.2504272c-0.5194092,3.3294373-1.5582275,6.4990845-3.0496826,9.3890991l143.8052979,73.2877808
	c-9.2426147,18.1119385-21.2684326,34.572876-35.5185547,48.8095093L522.3205566,522.3339844
	c-2.3306274,2.3305664-5.020813,4.3015747-7.9906616,5.7930298l73.2877808,143.8186035
	c-17.7260742,9.0561523-37.0501709,15.4487305-57.4262695,18.6448975L504.940979,531.1901245
	c-1.6115723,0.2529907-3.26297,0.3862915-4.9410095,0.3862915c-1.6780701,0-3.3294678-0.1333008-4.9408569-0.3862915
	l-25.2504578,159.4003906c-20.3762512-3.196167-39.7003479-9.5887451-57.4262085-18.6448975l73.2875671-143.8052979
	c-2.9698181-1.5047607-5.6733704-3.475769-8.0039978-5.8063354L363.5727539,636.4272461
	c-14.249939-14.2366333-26.2759399-30.6975708-35.5317383-48.8095093l143.818634-73.2877808
	c-1.4917297-2.8900146-2.5305786-6.0596619-3.0498047-9.3890991l-159.4003601,25.2504272
	C307.8510742,520.3629761,307.0521851,510.2679749,307.0521851,500.0000305z M484.2984009,500.0000305
	c0,8.6698608,7.0316772,15.7016907,15.7015686,15.7016907c8.6698608,0,15.7016907-7.0318298,15.7016907-15.7016907
	c0-8.6698914-7.0318298-15.7017212-15.7016907-15.7017212C491.3300781,484.2983093,484.2984009,491.3301392,484.2984009,500.0000305
	z M597.0865479,309.4625244l47.9706421-94.156601c-29.3522339-14.9958191-61.3415527-25.5700531-95.0755615-30.8704987
	l-16.5272827,104.3712158C556.0279541,292.3490601,577.4428711,299.4342041,597.0865479,309.4625244z M309.462616,597.0864868
	l-94.1700745,47.9839478c15.3154297,29.9916382,35.2256012,57.2398071,58.8114929,80.8255005l74.7125244-74.7125244
	C333.0351868,635.4017334,319.704071,617.1564331,309.462616,597.0864868z"/>
</svg>
